<svg version="1.2" xmlns="http://www.w3.org/2000/svg" viewBox="0 0 903 749" width="903" height="749">
	<title>6324727-ai</title>
	<style>
		.s0 { fill: #ebebeb } 
		.s1 { fill: #dbdbdb } 
		.s2 { fill: #263238 } 
		.s3 { fill: #455a64 } 
		.s4 { fill: #37474f } 
		.s5 { fill: #8dc63f } 
		.s6 { fill: #1975bb } 
		.s7 { opacity: .1;fill: #000000 } 
		.s8 { fill: #ffffff } 
		.s9 { opacity: .3;fill: #000000 } 
		.s10 { fill: #166199 } 
		.s11 { fill: #135689 } 
		.s12 { fill: #145a8f } 
		.s13 { opacity: .2;fill: #ffc727 } 
		.s14 { fill: #ffc727 } 
		.s15 { opacity: .5;fill: #000000 } 
		.s16 { opacity: .2;fill: #ffffff } 
		.s17 { fill: #000000 } 
	</style>
	<g id="Background Complete">
		<g id="&lt;Group&gt;">
			<g id="&lt;Group&gt;">
				<path id="&lt;Path&gt;" class="s0" d="m380.1 654.5h-357.4l46.3-114 24.5-13.4 38.5-89.1 31.2-18.3 29.6-53.6h29.3l65 109.8 33.1 17z"/>
				<path id="&lt;Path&gt;" class="s1" d="m22.7 654.5h154.2v-88.9l39.5-62.3-18.8-65.3 24.5-71.9h-29.3l-29.6 53.6-31.2 18.3-38.5 89.1-24.5 13.4z"/>
				<path id="&lt;Path&gt;" class="s1" d="m222.1 654.5l14.9-46.8 24.2-23.8 10.8-28.1 7.5 6.1v26.8l-18.3 21.4v44.5z"/>
				<path id="&lt;Path&gt;" class="s1" d="m250.8 510.3l4-18.8 10.8-10.8 5 6.4-6.7 8.4 3 17.9z"/>
			</g>
			<g id="&lt;Group&gt;">
				<path id="&lt;Path&gt;" class="s0" d="m354.4 654.4h522.9l-98.6-206.1-47.5-20.3-50.4-98.5-33.2-35.7-29.3-65.2-34.3 5.6-58.6 136.6-32.7 24.4-53.2 140.6-52.3 50.9z"/>
				<path id="&lt;Path&gt;" class="s1" d="m618.3 228.6l4 102.7-38.6 54 18.1 41.2-35.8 91 31.2 75.3-18.5 61.6h-224.3l32.8-67.7 52.3-50.9 53.2-140.6 32.7-24.4 58.6-136.6z"/>
				<path id="&lt;Path&gt;" class="s1" d="m608.7 491.1l26.9-46.8-2.1-19.9 10-14.2 12.2 40.4-36.5 40.5z"/>
			</g>
		</g>
		<g id="&lt;Group&gt;">
			<path id="&lt;Path&gt;" class="s1" d="m587.6 147l1.9 3.9 4.2 0.6-3.1 3 0.8 4.3-3.8-2-3.9 2 0.8-4.3-3.1-3 4.2-0.6z"/>
			<path id="&lt;Path&gt;" class="s1" d="m228.5 340.6l2 3.9 4.2 0.6-3.1 3 0.8 4.3-3.9-2-3.8 2 0.8-4.3-3.1-3 4.2-0.6z"/>
			<path id="&lt;Path&gt;" class="s1" d="m727.3 5.2l2 3.8 4.2 0.6-3.1 3.1 0.8 4.2-3.9-2-3.8 2 0.8-4.2-3.1-3.1 4.2-0.6z"/>
			<path id="&lt;Path&gt;" class="s1" d="m298.4 11l1.9 3.9 4.2 0.6-3 3 0.7 4.3-3.8-2-3.9 2 0.8-4.3-3.1-3 4.3-0.6z"/>
			<path id="&lt;Path&gt;" class="s1" d="m842.3 328.9l1.9 3.8 4.3 0.6-3.1 3.1 0.7 4.2-3.8-2-3.8 2 0.7-4.2-3.1-3.1 4.3-0.6z"/>
			<path id="&lt;Path&gt;" class="s1" d="m421.4 140.4l1.9 3.9 4.3 0.6-3.1 3 0.7 4.2-3.8-2-3.8 2 0.7-4.2-3.1-3 4.3-0.6z"/>
			<path id="&lt;Path&gt;" class="s1" d="m40.9 60.7l1.9 3.8 4.3 0.7-3.1 3 0.7 4.2-3.8-2-3.9 2 0.8-4.2-3.1-3 4.3-0.7z"/>
			<path id="&lt;Path&gt;" class="s1" d="m123.3 291.8l1.9 3.8 4.3 0.7-3.1 3 0.7 4.2-3.8-2-3.8 2 0.7-4.2-3.1-3 4.3-0.7z"/>
			<path id="&lt;Path&gt;" class="s1" d="m40.9 357.7l1.1 2.4 2.7 0.3-1.9 1.9 0.4 2.6-2.3-1.2-2.4 1.2 0.5-2.6-2-1.9 2.7-0.3z"/>
			<path id="&lt;Path&gt;" class="s1" d="m309.5 114.8l1.1 2.4 2.7 0.4-1.9 1.9 0.4 2.6-2.3-1.2-2.4 1.2 0.4-2.6-1.9-1.9 2.7-0.4z"/>
			<path id="&lt;Path&gt;" class="s1" d="m507.9 327.5l1.2 2.4 2.6 0.3-1.9 1.9 0.4 2.6-2.3-1.2-2.4 1.2 0.5-2.6-1.9-1.9 2.6-0.3z"/>
			<path id="&lt;Path&gt;" class="s1" d="m61.6 81.4l1.2 2.4 2.6 0.4-1.9 1.8 0.5 2.7-2.4-1.3-2.4 1.3 0.5-2.7-1.9-1.8 2.6-0.4z"/>
			<path id="&lt;Path&gt;" class="s1" d="m733.5 294l1.2 2.4 2.6 0.4-1.9 1.9 0.5 2.6-2.4-1.3-2.3 1.3 0.4-2.6-1.9-1.9 2.6-0.4z"/>
			<path id="&lt;Path&gt;" class="s1" d="m139.2 406.5l1.2 2.4 2.7 0.4-1.9 1.9 0.4 2.6-2.4-1.2-2.3 1.2 0.4-2.6-1.9-1.9 2.7-0.4z"/>
			<path id="&lt;Path&gt;" class="s1" d="m93.4 278.9l1.2 2.4 2.6 0.4-1.9 1.8 0.5 2.6-2.4-1.2-2.4 1.2 0.5-2.6-1.9-1.8 2.6-0.4z"/>
			<path id="&lt;Path&gt;" class="s1" d="m481 96.3l1.1 2.4 2.7 0.4-1.9 1.9 0.4 2.6-2.3-1.3-2.4 1.3 0.4-2.6-1.9-1.9 2.7-0.4z"/>
			<path id="&lt;Path&gt;" class="s1" d="m742.9 406.5l1.2 2.4 2.6 0.4-1.9 1.9 0.4 2.6-2.3-1.2-2.4 1.2 0.5-2.6-1.9-1.9 2.6-0.4z"/>
			<path id="&lt;Path&gt;" class="s1" d="m861.5 178.2l1.2 2.4 2.6 0.4-1.9 1.9 0.5 2.6-2.4-1.2-2.4 1.2 0.5-2.6-1.9-1.9 2.6-0.4z"/>
			<path id="&lt;Path&gt;" class="s1" d="m757.2 174.6l1.2 2.4 2.7 0.4-2 1.9 0.5 2.6-2.4-1.3-2.3 1.3 0.4-2.6-1.9-1.9 2.7-0.4z"/>
			<path id="&lt;Path&gt;" class="s1" d="m680.7 69.8c-9.1 15.8-26.1 26.5-45.7 26.5-29.1 0-52.7-23.6-52.7-52.7 0-25.1 17.5-46.1 41-51.4-16.9 7.8-28.7 24.9-28.7 44.8 0 27.2 22.1 49.3 49.3 49.3 14.7 0 27.8-6.4 36.8-16.5z"/>
		</g>
	</g>
	<g id="Floor">
		<g id="&lt;Group&gt;">
			<path id="&lt;Path&gt;" class="s2" d="m22.3 654.5c274-1.3 581.4-1.3 855.4 0-274 1.2-581.4 1.2-855.4 0z"/>
		</g>
		<g id="&lt;Group&gt;">
			<path id="&lt;Path&gt;" class="s3" d="m888.7 672.4h-877.4c-5 0-9-4-9-9 0-4.9 4-8.9 9-8.9h877.4c5 0 9 4 9 8.9 0 5-4 9-9 9z"/>
			<path id="&lt;Path&gt;" class="s3" d="m710.3 708h-553.1c-5 0-9-4-9-8.9 0-5 4-9 9-9h553.1c5 0 9 4 9 9 0 4.9-4 8.9-9 8.9z"/>
			<path id="&lt;Path&gt;" class="s3" d="m660.6 743.5h-403c-4.9 0-8.9-4-8.9-9 0-4.9 4-9 8.9-9h403c5 0 9 4.1 9 9 0 5-4 9-9 9z"/>
			<path id="&lt;Path&gt;" class="s3" d="m119.8 708h-42.1c-4.9 0-8.9-4-8.9-8.9 0-5 4-9 8.9-9h42.1c5 0 9 4 9 9 0 4.9-4 8.9-9 8.9z"/>
			<path id="&lt;Path&gt;" class="s3" d="m730.3 743.5h-21.1c-4.9 0-9-4-9-9 0-4.9 4.1-9 9-9h21.1c4.9 0 8.9 4.1 8.9 9 0 5-4 9-8.9 9z"/>
			<path id="&lt;Path&gt;" class="s3" d="m417 690.3h-231.8c2.5 0 4.7-1 6.3-2.6 1.6-1.7 2.6-3.9 2.6-6.4 0-4.9-4-8.9-8.9-8.9h231.8c-2.5 0-4.8 1-6.4 2.6-1.6 1.6-2.6 3.9-2.6 6.3 0 5 4 9 9 9z"/>
			<path id="&lt;Path&gt;" class="s3" d="m657.7 690.3h-152.1c2.5 0 4.8-1 6.4-2.6 1.6-1.7 2.6-3.9 2.6-6.4 0-4.9-4-8.9-9-8.9h152.1c-2.5 0-4.8 1-6.4 2.6-1.6 1.6-2.6 3.9-2.6 6.3 0 5 4 9 9 9z"/>
			<path id="&lt;Path&gt;" class="s3" d="m542.7 725.7h-233.3c2.5 0 4.8-1 6.4-2.6 1.6-1.6 2.6-3.8 2.6-6.3 0-5-4-9-8.9-9h233.2c-2.5 0-4.7 1-6.4 2.6-1.6 1.7-2.6 3.9-2.6 6.4 0 4.9 4 8.9 9 8.9z"/>
		</g>
	</g>
	<g id="Mountains">
		<g id="&lt;Group&gt;">
			<g id="&lt;Group&gt;">
				<path id="&lt;Path&gt;" class="s3" d="m82.3 654.3h558l-101.9-251.1-49-24.8-52-120-34.3-43.5-30.2-79.5-35.4 6.8-60.5 166.4-33.8 29.8-73.1 171.4-54 62z"/>
				<path id="&lt;Path&gt;" class="s4" d="m372.9 135.4l4.1 125.2-39.8 65.7 18.7 50.3-37 110.9 32.2 91.7-19.1 75.1h-249.7l33.8-82.5 54-62 73.1-171.4 33.8-29.8 60.5-166.4z"/>
				<path id="&lt;Path&gt;" class="s4" d="m362.9 455.3l27.8-57.1-2.2-24.2 10.4-17.3 12.5 49.3-37.6 49.3z"/>
			</g>
			<g id="&lt;Group&gt;">
				<path id="&lt;Path&gt;" class="s4" d="m817.7 654.3h-413.1l54.5-134 38.6-31 39.8-115.4 32.2-23.7 30.5-69.5h30.2l67.1 142.2 34.2 22.2z"/>
				<path id="&lt;Path&gt;" class="s2" d="m404.6 654.3h179.2v-115.2l40.8-80.6-19.5-84.6 25.3-93.2h-30.2l-30.5 69.5-32.2 23.7-39.8 115.4-38.6 31z"/>
				<path id="&lt;Path&gt;" class="s2" d="m630.4 654.3l15.5-60.6 24.9-30.8 11.1-36.4 7.8 7.9v34.8l-18.9 27.7v57.7z"/>
				<path id="&lt;Path&gt;" class="s2" d="m660.1 467.5l4.1-24.3 11.1-14 5.3 8.3-7 10.9 3.1 23.1z"/>
			</g>
		</g>
	</g>
	<g id="Trees">
		<g id="&lt;Group&gt;">
			<g id="&lt;Group&gt;">
				<path id="&lt;Path&gt;" class="s5" d="m107.4 653.8c-2.3 2.3-29 3.4-38.8 3.4-9.7 0-36.4-1.1-38.7-3.4-2.3-2.3 30.1-179.9 38.7-179.9 8.7 0 41.1 177.6 38.8 179.9z"/>
				<path id="&lt;Path&gt;" class="s4" d="m107.9 608.6c-6.6 2.5-31.1 12.5-36.3 15.4q0-1.7-0.1-3.4 8.9-5.2 17.8-10.3c6.3-3.7 13.2-7 19.1-11.4 0.3-0.2 0.1-0.8-0.3-0.6-6.5 2.7-12.6 6.7-18.7 10.3-6 3.5-11.9 7.2-17.9 10.8q0-12.7-0.1-25.5c9.6-3.8 19.1-8.9 27.9-14.2 0.3-0.2 0.1-0.7-0.2-0.6-9.3 3.9-19 8.4-27.7 13.6q0-6.6-0.1-13.2c-0.2-22.8-0.3-45.6-0.8-68.4 5.8-3 11.7-5.5 17.5-8.5 0.4-0.2 0.1-0.8-0.3-0.7-5.8 2.3-11.5 5-17.3 7.6-0.3-11.8-0.7-23.5-1.5-35.3 0-0.4-0.6-0.4-0.6 0-0.8 21.8-0.7 43.7-0.4 65.6-6-4.8-12.5-9.1-18.6-13.7-0.2-0.2-0.4 0.2-0.2 0.4 6.4 4.8 12.4 10.2 18.8 15.1q0 1.8 0 3.7c-6.5-3-13.1-5.8-19.7-8.6-0.5-0.2-1 0.5-0.4 0.8 6.7 3.2 13.4 6.5 20.2 9.5 0.1 10.8 0.3 21.6 0.4 32.5 0.3 18.9 0.7 37.8 1.1 56.7q-18.5-9.4-37.2-18.2c-0.4-0.2-0.9 0.4-0.4 0.7 12.2 7 24.8 13.3 37.6 18.9 0.4 15.7 0.7 1.4 0.9 17.1 0 1 1.5 1 1.5 0-0.2-20-0.3-10-0.3-30.1 6.5-1.6 30.9-12.1 36.8-14.9 0.6-0.3 0.1-1.4-0.5-1.1z"/>
			</g>
			<g id="&lt;Group&gt;">
				<path id="&lt;Path&gt;" class="s5" d="m307.3 653.7c-1.9 2-24.9 2.8-33.2 2.8-8.3 0-31.3-0.8-33.2-2.8-2-2 25.8-154.4 33.2-154.4 7.4 0 35.2 152.4 33.2 154.4z"/>
				<path id="&lt;Path&gt;" class="s4" d="m307.8 614.9c-5.7 2.1-26.7 10.7-31.2 13.2q0-1.5 0-2.9 7.6-4.5 15.2-8.9c5.5-3.2 11.3-6 16.4-9.7 0.3-0.2 0.1-0.7-0.2-0.6-5.6 2.4-10.8 5.8-16.1 8.9-5.1 3-10.2 6.1-15.3 9.3q0-11-0.1-22c8.2-3.2 16.4-7.6 23.9-12.1 0.3-0.2 0.1-0.7-0.2-0.5-8 3.3-16.3 7.2-23.7 11.7q0-5.7-0.1-11.4c-0.2-19.6-0.2-39.2-0.7-58.7 4.9-2.5 10.1-4.8 15-7.3 0.4-0.1 0.1-0.7-0.2-0.6-5.1 2-9.9 4.3-14.9 6.5-0.2-10.1-0.6-20.2-1.2-30.3-0.1-0.3-0.5-0.3-0.6 0-0.7 18.8-0.6 37.5-0.4 56.3-5.1-4.1-10.6-7.8-15.9-11.8-0.2-0.1-0.4 0.2-0.2 0.4 5.5 4.2 10.7 8.8 16.2 12.9q0 1.6 0 3.2c-5.6-2.5-11.3-4.9-16.9-7.3-0.5-0.2-0.9 0.4-0.4 0.6 5.8 2.8 11.5 5.6 17.3 8.2q0.2 13.9 0.4 27.9c0.2 16.2 0.6 32.4 0.9 48.6q-15.8-8-31.8-15.6c-0.5-0.1-0.8 0.4-0.4 0.7 10.4 5.9 21.2 11.4 32.3 16.2 0.3 13.4 0.5 3.3 0.7 16.7 0 0.9 1.3 0.9 1.3 0-0.2-17.1-0.2-10.7-0.3-27.9 5.6-1.3 26.6-10.3 31.6-12.8 0.5-0.3 0.1-1.2-0.4-0.9z"/>
			</g>
			<g id="&lt;Group&gt;">
				<path id="&lt;Path&gt;" class="s5" d="m90.7 654.5c1.7 1.7 21 2.4 28 2.4 7 0 26.3-0.7 28-2.4 1.7-1.7-21.7-130-28-130-6.3 0-29.6 128.3-28 130z"/>
				<path id="&lt;Path&gt;" class="s3" d="m90.3 621.8c4.8 1.8 22.5 9 26.3 11.1q0-1.2 0-2.4-6.4-3.8-12.8-7.5c-4.6-2.7-9.5-5-13.8-8.2-0.2-0.1-0.1-0.6 0.2-0.5 4.7 2 9.1 4.9 13.5 7.5 4.3 2.6 8.6 5.2 12.9 7.8q0-9.2 0.1-18.4c-6.9-2.8-13.8-6.5-20.2-10.3-0.2-0.1 0-0.5 0.2-0.4 6.7 2.8 13.7 6 20 9.8q0-4.8 0.1-9.6c0.1-16.4 0.2-32.9 0.6-49.4-4.2-2.1-8.5-4-12.7-6.1-0.3-0.1-0.1-0.6 0.2-0.5 4.3 1.7 8.3 3.6 12.5 5.5 0.2-8.5 0.6-17 1.1-25.5 0-0.3 0.4-0.3 0.4 0 0.6 15.8 0.6 31.6 0.4 47.4 4.3-3.5 8.9-6.6 13.4-9.9 0.1-0.2 0.3 0.1 0.1 0.2-4.6 3.6-8.9 7.5-13.5 11q-0.1 1.3-0.1 2.6c4.7-2.1 9.5-4.1 14.3-6.2 0.3-0.1 0.7 0.4 0.3 0.6-4.9 2.3-9.7 4.7-14.6 6.9q-0.2 11.7-0.3 23.4c-0.2 13.7-0.5 27.4-0.8 41q13.3-6.7 26.8-13.1c0.4-0.2 0.7 0.3 0.3 0.5-8.7 5.1-17.9 9.6-27.1 13.7-0.3 11.3-0.5 2.5-0.7 13.8 0 0.7-1 0.7-1 0 0.1-14.4 0.2-8.7 0.2-23.2-4.7-1.2-22.4-8.7-26.6-10.8-0.4-0.2-0.1-1 0.3-0.8z"/>
			</g>
			<g id="&lt;Group&gt;">
				<path id="&lt;Path&gt;" class="s5" d="m799.5 653.4c-2.1 2.2-26.7 3.1-35.7 3.1-9 0-33.6-0.9-35.8-3.1-2.1-2.1 27.8-166 35.8-166 8 0 37.9 163.9 35.7 166z"/>
				<path id="&lt;Path&gt;" class="s3" d="m800 611.7c-6.1 2.3-28.6 11.5-33.5 14.2q0-1.6 0-3.1 8.2-4.8 16.4-9.6c5.8-3.4 12.1-6.4 17.6-10.4 0.2-0.2 0.1-0.8-0.3-0.6-6 2.5-11.6 6.2-17.2 9.5-5.6 3.2-11 6.6-16.5 10q0-11.8-0.1-23.6c8.8-3.5 17.6-8.2 25.7-13.1 0.3-0.1 0.1-0.7-0.2-0.5-8.6 3.5-17.5 7.7-25.5 12.5q-0.1-6.1-0.1-12.2c-0.2-21-0.3-42.1-0.8-63.1 5.3-2.7 10.9-5.1 16.2-7.8 0.3-0.2 0.1-0.8-0.3-0.7-5.4 2.1-10.6 4.7-16 7-0.2-10.9-0.7-21.7-1.3-32.5 0-0.4-0.6-0.4-0.6 0-0.7 20.1-0.7 40.3-0.4 60.4-5.6-4.4-11.5-8.3-17.1-12.6-0.2-0.2-0.4 0.2-0.2 0.4 5.9 4.5 11.4 9.4 17.3 13.9q0 1.7 0 3.4c-6-2.7-12.1-5.3-18.1-7.9-0.5-0.2-0.9 0.5-0.5 0.7 6.2 3 12.4 6 18.7 8.8 0.1 10 0.3 20 0.4 30 0.2 17.4 0.6 34.9 1 52.3q-17-8.6-34.3-16.7c-0.4-0.2-0.8 0.4-0.4 0.6 11.2 6.4 22.9 12.3 34.7 17.5 0.3 14.4 0.6 3.5 0.8 18 0 0.9 1.4 0.9 1.4 0-0.2-18.5-0.2-11.5-0.3-30 6-1.5 28.6-11.2 34-13.8 0.5-0.3 0.1-1.3-0.5-1z"/>
			</g>
			<g id="&lt;Group&gt;">
				<path id="&lt;Path&gt;" class="s5" d="m697.5 653.4c-2.1 2.2-26.7 3.1-35.7 3.1-9 0-33.6-0.9-35.8-3.1-2.1-2.1 27.8-166 35.8-166 8 0 37.8 163.9 35.7 166z"/>
				<path id="&lt;Path&gt;" class="s3" d="m698 611.7c-6.1 2.3-28.6 11.5-33.5 14.2q0-1.6 0-3.1 8.1-4.8 16.3-9.6c5.9-3.4 12.2-6.4 17.7-10.4 0.2-0.2 0.1-0.8-0.3-0.6-6 2.5-11.6 6.2-17.2 9.5-5.6 3.2-11.1 6.6-16.5 10q-0.1-11.8-0.1-23.6c8.8-3.5 17.6-8.2 25.7-13.1 0.3-0.1 0.1-0.7-0.2-0.5-8.6 3.5-17.5 7.7-25.5 12.5q-0.1-6.1-0.1-12.2c-0.3-21-0.3-42.1-0.8-63.1 5.3-2.7 10.8-5.1 16.2-7.8 0.3-0.2 0.1-0.8-0.3-0.7-5.4 2.1-10.6 4.7-16 7-0.3-10.9-0.7-21.7-1.3-32.5-0.1-0.4-0.6-0.4-0.6 0-0.7 20.1-0.7 40.3-0.4 60.4-5.6-4.4-11.5-8.3-17.1-12.6-0.2-0.2-0.5 0.2-0.2 0.4 5.9 4.5 11.4 9.4 17.3 13.9q0 1.7 0 3.4c-6-2.7-12.1-5.3-18.2-7.9-0.4-0.2-0.9 0.5-0.4 0.7 6.2 3 12.4 6 18.7 8.8 0.1 10 0.3 20 0.4 30 0.2 17.4 0.6 34.9 1 52.3q-17-8.6-34.3-16.7c-0.5-0.2-0.8 0.4-0.4 0.6 11.2 6.4 22.9 12.3 34.7 17.5 0.3 14.4 0.6 3.5 0.8 18 0 0.9 1.4 0.9 1.4 0-0.2-18.5-0.3-11.5-0.3-30 6-1.5 28.6-11.2 34-13.8 0.5-0.3 0.1-1.3-0.5-1z"/>
			</g>
			<g id="&lt;Group&gt;">
				<path id="&lt;Path&gt;" class="s5" d="m684.4 655c1.5 1.5 18.7 2.2 25 2.2 6.2 0 23.5-0.7 25-2.2 1.4-1.5-19.4-116-25-116-5.6 0-26.5 114.5-25 116z"/>
				<path id="&lt;Path&gt;" class="s4" d="m684 625.8c4.3 1.6 20.1 8.1 23.5 9.9q0-1 0-2.1-5.7-3.4-11.5-6.7c-4-2.4-8.4-4.5-12.3-7.3-0.2-0.1 0-0.5 0.2-0.4 4.2 1.7 8.1 4.3 12.1 6.6q5.8 3.5 11.5 7 0-8.2 0.1-16.5c-6.2-2.4-12.4-5.7-18-9.1-0.2-0.1-0.1-0.5 0.1-0.4 6 2.5 12.3 5.4 17.9 8.8q0-4.3 0-8.6c0.2-14.7 0.2-29.4 0.6-44.1-3.8-1.9-7.6-3.5-11.3-5.4-0.3-0.1-0.1-0.6 0.1-0.5 3.8 1.5 7.5 3.3 11.2 4.9 0.2-7.6 0.5-15.2 1-22.7 0-0.3 0.4-0.3 0.4 0 0.5 14 0.4 28.1 0.3 42.2 3.8-3.1 8-5.8 11.9-8.8 0.2-0.1 0.3 0.1 0.2 0.3-4.2 3.1-8 6.6-12.1 9.7q-0.1 1.2-0.1 2.4c4.2-1.9 8.5-3.7 12.7-5.5 0.4-0.2 0.7 0.3 0.3 0.5-4.3 2-8.6 4.1-13 6.1q-0.2 10.5-0.3 20.9c-0.2 12.2-0.4 24.4-0.7 36.6q11.9-6 24-11.7c0.3-0.1 0.6 0.3 0.2 0.5-7.8 4.5-15.9 8.5-24.2 12.1-0.2 10.2-0.4 2.1-0.6 12.2 0 0.6-0.9 0.6-0.9 0 0.1-12.9 0.1-7.6 0.2-20.5-4.2-1.1-20-7.8-23.8-9.7-0.3-0.2-0.1-0.8 0.3-0.7z"/>
			</g>
			<g id="&lt;Group&gt;">
				<path id="&lt;Path&gt;" class="s5" d="m205 654.8c1.5 1.5 18.8 2.1 25 2.1 6.3 0 23.5-0.6 25-2.1 1.5-1.5-19.4-116.1-25-116.1-5.6 0-26.4 114.6-25 116.1z"/>
				<path id="&lt;Path&gt;" class="s4" d="m204.7 625.6c4.3 1.6 20 8 23.4 9.9q0-1.1 0.1-2.1-5.8-3.4-11.5-6.7c-4.1-2.4-8.5-4.5-12.3-7.3-0.2-0.2-0.1-0.6 0.2-0.4 4.2 1.7 8.1 4.3 12 6.6q5.8 3.4 11.6 7 0-8.2 0-16.5c-6.1-2.5-12.3-5.7-18-9.1-0.2-0.1 0-0.5 0.2-0.4 6 2.5 12.2 5.4 17.8 8.8q0.1-4.3 0.1-8.6c0.1-14.7 0.2-29.4 0.6-44.1-3.8-1.9-7.6-3.6-11.4-5.5-0.2-0.1-0.1-0.5 0.2-0.4 3.8 1.5 7.5 3.2 11.2 4.9 0.2-7.6 0.5-15.2 0.9-22.8 0-0.2 0.4-0.2 0.4 0 0.6 14.1 0.5 28.2 0.3 42.3 3.9-3.1 8-5.8 12-8.8 0.1-0.1 0.3 0.1 0.1 0.2-4.1 3.2-8 6.6-12.1 9.8q0 1.2 0 2.4c4.2-2 8.4-3.7 12.7-5.6 0.3-0.1 0.6 0.4 0.3 0.5-4.3 2.1-8.7 4.2-13 6.2q-0.2 10.4-0.3 20.9c-0.2 12.2-0.5 24.4-0.7 36.6q11.9-6 23.9-11.7c0.3-0.2 0.6 0.3 0.3 0.4-7.8 4.5-16 8.6-24.2 12.2-0.3 10.1-0.5 2.3-0.6 12.4 0 0.6-1 0.6-1 0 0.2-12.9 0.2-7.8 0.2-20.8-4.1-1-19.9-7.8-23.7-9.6-0.4-0.2-0.1-0.9 0.3-0.7z"/>
			</g>
			<g id="&lt;Group&gt;">
				<path id="&lt;Path&gt;" class="s5" d="m353.4 654.6c1.5 1.4 18.8 2.1 25 2.1 6.3 0 23.5-0.7 25-2.1 1.5-1.5-19.4-116.1-25-116.1-5.6 0-26.4 114.6-25 116.1z"/>
				<path id="&lt;Path&gt;" class="s4" d="m353.1 625.4c4.3 1.6 20 8 23.4 9.9q0-1.1 0-2.2-5.7-3.3-11.4-6.6c-4.1-2.4-8.5-4.6-12.3-7.4-0.2-0.1-0.1-0.5 0.2-0.4 4.2 1.8 8.1 4.4 12 6.7q5.8 3.4 11.6 7 0-8.3 0-16.5c-6.1-2.5-12.3-5.8-18-9.2-0.2-0.1 0-0.4 0.2-0.3 6 2.4 12.2 5.4 17.8 8.7q0.1-4.2 0.1-8.5c0.1-14.7 0.2-29.4 0.5-44.1-3.7-1.9-7.5-3.6-11.3-5.5-0.2-0.1-0.1-0.5 0.2-0.4 3.8 1.4 7.5 3.2 11.2 4.8 0.2-7.5 0.5-15.1 0.9-22.7 0-0.2 0.4-0.3 0.4 0 0.5 14.1 0.5 28.2 0.3 42.3 3.9-3.1 8-5.9 12-8.9 0.1-0.1 0.3 0.2 0.1 0.3-4.1 3.1-8 6.6-12.1 9.7q0 1.2 0 2.4c4.2-1.9 8.4-3.7 12.7-5.5 0.3-0.1 0.6 0.3 0.3 0.5-4.3 2.1-8.7 4.2-13 6.1q-0.2 10.5-0.3 21c-0.2 12.2-0.5 24.4-0.7 36.5q11.9-6 23.9-11.7c0.3-0.1 0.6 0.3 0.3 0.5-7.8 4.5-16 8.6-24.2 12.2-0.3 10.1-0.5 2.5-0.6 12.6 0 0.6-1 0.6-1 0 0.2-12.9 0.2-8.1 0.2-21-4.1-1-19.9-7.8-23.7-9.6-0.4-0.2-0.1-0.9 0.3-0.7z"/>
			</g>
			<g id="&lt;Group&gt;">
				<path id="&lt;Path&gt;" class="s5" d="m820.2 654.6c1.5 1.4 18.7 2.1 25 2.1 6.2 0 23.5-0.7 24.9-2.1 1.5-1.5-19.4-116.1-24.9-116.1-5.6 0-26.5 114.6-25 116.1z"/>
				<path id="&lt;Path&gt;" class="s4" d="m819.8 625.4c4.3 1.6 20.1 8 23.5 9.9q0-1.1 0-2.2-5.7-3.3-11.5-6.6c-4.1-2.4-8.5-4.6-12.3-7.4-0.2-0.1-0.1-0.5 0.2-0.4 4.2 1.8 8.1 4.4 12 6.7q5.9 3.4 11.6 7 0-8.3 0.1-16.5c-6.2-2.5-12.4-5.8-18-9.2-0.2-0.1-0.1-0.4 0.1-0.3 6 2.4 12.3 5.4 17.9 8.7q0-4.2 0-8.5c0.2-14.7 0.2-29.4 0.6-44.1-3.8-1.9-7.6-3.6-11.4-5.5-0.2-0.1 0-0.5 0.2-0.4 3.8 1.4 7.5 3.2 11.2 4.8 0.2-7.5 0.5-15.1 1-22.7 0-0.2 0.3-0.3 0.4 0 0.5 14.1 0.4 28.2 0.3 42.3 3.8-3.1 8-5.9 11.9-8.9 0.2-0.1 0.3 0.2 0.2 0.3-4.2 3.1-8 6.6-12.2 9.7q0 1.2 0 2.4c4.2-1.9 8.5-3.7 12.7-5.5 0.4-0.1 0.7 0.3 0.3 0.5-4.3 2.1-8.6 4.2-13 6.1q-0.2 10.5-0.3 21c-0.2 12.2-0.4 24.4-0.7 36.5q11.9-6 24-11.7c0.3-0.1 0.5 0.3 0.2 0.5-7.8 4.5-15.9 8.6-24.2 12.2-0.2 10.1-0.4 2.5-0.6 12.6 0 0.6-0.9 0.6-0.9 0 0.1-12.9 0.1-8.1 0.2-21-4.2-1-20-7.8-23.8-9.6-0.4-0.2-0.1-0.9 0.3-0.7z"/>
			</g>
		</g>
	</g>
	<g id="Tent">
		<g id="&lt;Group&gt;">
			<path id="&lt;Path&gt;" class="s2" d="m634.5 646.3h-3v8.3h3z"/>
			<path id="&lt;Path&gt;" class="s2" d="m491.2 646.3h-2.9v8.3h2.9z"/>
			<path id="&lt;Path&gt;" class="s6" d="m488.3 654.6l41.8-62.1 42.9 62.1z"/>
			<path id="&lt;Path&gt;" class="s7" d="m487.3 655.6l41.8-62.1 42.9 62.1z"/>
			<path id="&lt;Path&gt;" class="s6" d="m530.1 592.5h61.3l42.5 62.1h-60.9z"/>
			<path id="&lt;Path&gt;" class="s8" d="m556.2 603.8h28l8.5 12.4h-27.9z"/>
			<path id="&lt;Path&gt;" class="s9" d="m515.3 655.6h26.4l-12.6-62.1z"/>
			<path id="&lt;Path&gt;" class="s2" d="m574.5 646.3h-3v8.3h3z"/>
			<path id="&lt;Path&gt;" class="s8" d="m530.1 592.5c-10.1 20.2-21.9 42.4-32.8 62.1 10.1-20.2 21.8-42.4 32.8-62.1z"/>
			<path id="&lt;Path&gt;" class="s8" d="m530.1 592.5c10.8 19.6 22.4 41.7 32.5 61.8-10.9-19.7-22.5-41.7-32.5-61.8z"/>
			<path id="&lt;Path&gt;" class="s10" d="m516.3 654.6c0 0-1.9-8.8-11-16.5l24.8-45.6z"/>
			<path id="&lt;Path&gt;" class="s10" d="m542.7 654.6l-12.6-62.1 25.7 48c0 0-11.4 1.4-13.1 14.1z"/>
		</g>
	</g>
	<g id="Text">
		<g id="&lt;Group&gt;">
			<g id="&lt;Group&gt;">
				<g id="&lt;Group&gt;">
					<path id="&lt;Compound Path&gt;" fill-rule="evenodd" class="s11" d="m311.8 234.5c0 13-10.5 23-23.4 23h-4.2v31.7c0 13-10 23-23 23-6.8 0-12.8-2.8-17-7.4q0 0 0 0-0.8-0.7-1.6-1.5v-0.1q-0.8-0.7-1.6-1.6 0 0 0 0-0.8-0.7-1.6-1.5v-0.1q-0.8-0.7-1.6-1.5 0-0.1 0-0.1-0.8-0.7-1.5-1.5l-0.1-0.1q-0.8-0.7-1.6-1.5 0 0 0-0.1-0.8-0.7-1.5-1.5l-0.1-0.1q-0.8-0.7-1.5-1.5 0 0-0.1 0-0.8-0.8-1.5-1.6h-0.1c-4.6-4.2-7.4-10.3-7.4-17.2v-15.8h-115.7c-5 0-10-1.3-14.2-5q-1.8-1.4-3.2-3-0.9-0.8-1.6-1.6-0.9-0.8-1.6-1.6-0.9-0.7-1.6-1.6-0.9-0.7-1.6-1.6-0.9-0.7-1.6-1.6-0.9-0.7-1.6-1.6-0.9-0.7-1.6-1.6-0.8-0.7-1.6-1.6-0.8-0.7-1.6-1.6c-8.8-8.1-9.5-21.2-2-30.7l154.5-192.1c0.4 0 0.4-0.4 0.8-0.8 0.4-0.4 0.8-0.9 1.2-1.7 1.3-0.4 1.7-0.8 2.1-1.3 0.5-0.4 1.3-0.8 1.7-1.2 0.9-0.4 1.3-0.8 2.5-0.8 0.4-0.9 0.9-1.3 1.7-1.3 0.4-0.4 1.2-0.4 2.5-0.8 0.4 0 1.2 0 1.7-0.4 0 0 3.3 0 3.7 0 0.4 0 2.9 0 3.3 0 0.9 0.4 1.3 0.4 2.1 0.4 0.5 0.4 1.7 0.4 2.6 0.8 0.4 0 1.2 0.4 1.6 0.4 0.9 0.9 1.7 1.3 2.1 1.7 0.8 0.4 1.3 0.8 2.1 1.2 0 0 0.4 0 0.4 0.5 0.4 0 1.3 0.4 1.3 0.8l0.9 0.9c0.3 0.2 0.7 0.4 0.7 0.7v0.1q0.6 0.5 0.9 0.8c0.3 0.2 0.6 0.4 0.6 0.7l0.1 0.1q0.5 0.5 0.9 0.8c0.3 0.2 0.6 0.4 0.6 0.7l0.1 0.1q0.5 0.5 0.9 0.8c0.3 0.2 0.6 0.4 0.6 0.7h0.1q0.5 0.6 0.8 0.9c0.4 0.1 0.7 0.4 0.7 0.7h0.1q0.5 0.6 0.8 0.9c0.4 0.1 0.7 0.4 0.7 0.6l0.1 0.1q0.5 0.5 0.8 0.9c0.4 0.1 0.7 0.4 0.7 0.6l0.1 0.1q0.5 0.5 0.8 0.9c0.4 0.1 0.7 0.4 0.7 0.6l0.1 0.1q0.5 0.5 0.8 0.8c0.4 0.2 0.7 0.5 0.7 0.7l0.1 0.1q0.5 0.5 0.8 0.8c0.4 0.2 0.7 0.5 0.7 0.7l1.7 1.7c0.4 0.4 0.8 1.2 1.2 1.7 0.4 0.4 0.8 0.8 1.7 2 0 0.5 0.4 1.3 0.8 1.7 0.4 0.8 0.4 1.3 0.9 2.5 0 0.4 0.4 1.3 0.4 1.7 0.4 0.8 0.4 1.3 0.4 2.5 0 0.8 0.4 1.3 0.4 2.1v157.2q3.1 1.8 5.6 4.5 0-0.1 0 0 0.8 0.7 1.6 1.5 0 0 0 0.1 0.8 0.7 1.6 1.5 0 0 0 0.1 0.8 0.7 1.5 1.5 0.1 0 0.1 0 0.8 0.8 1.5 1.6 0.1 0 0.1 0 0.8 0.8 1.5 1.6 0.1 0 0 0 0.9 0.8 1.6 1.6 0 0 0 0 0.9 0.8 1.6 1.6 0 0 0 0 0.9 0.7 1.6 1.6 0 0 0 0 0.9 0.7 1.6 1.6 0 0 0 0c4.7 4.2 7.7 10.3 7.7 16.9zm-143.8-38.8h54.4v-67.5z"/>
					<path id="&lt;Compound Path&gt;" fill-rule="evenodd" class="s7" d="m311.8 234.5c0 13-10.5 23-23.4 23h-4.2v31.7c0 13-10 23-23 23-6.8 0-12.8-2.8-17-7.4q0 0 0 0-0.8-0.7-1.6-1.5v-0.1q-0.8-0.7-1.6-1.6 0 0 0 0-0.8-0.7-1.6-1.5v-0.1q-0.8-0.7-1.6-1.5 0-0.1 0-0.1-0.8-0.7-1.5-1.5l-0.1-0.1q-0.8-0.7-1.6-1.5 0 0 0-0.1-0.8-0.7-1.5-1.5l-0.1-0.1q-0.8-0.7-1.5-1.5 0 0-0.1 0-0.8-0.8-1.5-1.6h-0.1c-4.6-4.2-7.4-10.3-7.4-17.2v-15.8h-115.7c-5 0-10-1.3-14.2-5q-1.8-1.4-3.2-3-0.9-0.8-1.6-1.6-0.9-0.8-1.6-1.6-0.9-0.7-1.6-1.6-0.9-0.7-1.6-1.6-0.9-0.7-1.6-1.6-0.9-0.7-1.6-1.6-0.9-0.7-1.6-1.6-0.8-0.7-1.6-1.6-0.8-0.7-1.6-1.6c-8.8-8.1-9.5-21.2-2-30.7l154.5-192.1c0.4 0 0.4-0.4 0.8-0.8 0.4-0.4 0.8-0.9 1.2-1.7 1.3-0.4 1.7-0.8 2.1-1.3 0.5-0.4 1.3-0.8 1.7-1.2 0.9-0.4 1.3-0.8 2.5-0.8 0.4-0.9 0.9-1.3 1.7-1.3 0.4-0.4 1.2-0.4 2.5-0.8 0.4 0 1.2 0 1.7-0.4 0 0 3.3 0 3.7 0 0.4 0 2.9 0 3.3 0 0.9 0.4 1.3 0.4 2.1 0.4 0.5 0.4 1.7 0.4 2.6 0.8 0.4 0 1.2 0.4 1.6 0.4 0.9 0.9 1.7 1.3 2.1 1.7 0.8 0.4 1.3 0.8 2.1 1.2 0 0 0.4 0 0.4 0.5 0.4 0 1.3 0.4 1.3 0.8l0.9 0.9c0.3 0.2 0.7 0.4 0.7 0.7v0.1q0.6 0.5 0.9 0.8c0.3 0.2 0.6 0.4 0.6 0.7l0.1 0.1q0.5 0.5 0.9 0.8c0.3 0.2 0.6 0.4 0.6 0.7l0.1 0.1q0.5 0.5 0.9 0.8c0.3 0.2 0.6 0.4 0.6 0.7h0.1q0.5 0.6 0.8 0.9c0.4 0.1 0.7 0.4 0.7 0.7h0.1q0.5 0.6 0.8 0.9c0.4 0.1 0.7 0.4 0.7 0.6l0.1 0.1q0.5 0.5 0.8 0.9c0.4 0.1 0.7 0.4 0.7 0.6l0.1 0.1q0.5 0.5 0.8 0.9c0.4 0.1 0.7 0.4 0.7 0.6l0.1 0.1q0.5 0.5 0.8 0.8c0.4 0.2 0.7 0.5 0.7 0.7l0.1 0.1q0.5 0.5 0.8 0.8c0.4 0.2 0.7 0.5 0.7 0.7l1.7 1.7c0.4 0.4 0.8 1.2 1.2 1.7 0.4 0.4 0.8 0.8 1.7 2 0 0.5 0.4 1.3 0.8 1.7 0.4 0.8 0.4 1.3 0.9 2.5 0 0.4 0.4 1.3 0.4 1.7 0.4 0.8 0.4 1.3 0.4 2.5 0 0.8 0.4 1.3 0.4 2.1v157.2q3.1 1.8 5.6 4.5 0-0.1 0 0 0.8 0.7 1.6 1.5 0 0 0 0.1 0.8 0.7 1.6 1.5 0 0 0 0.1 0.8 0.7 1.5 1.5 0.1 0 0.1 0 0.8 0.8 1.5 1.6 0.1 0 0.1 0 0.8 0.8 1.5 1.6 0.1 0 0 0 0.9 0.8 1.6 1.6 0 0 0 0 0.9 0.8 1.6 1.6 0 0 0 0 0.9 0.7 1.6 1.6 0 0 0 0 0.9 0.7 1.6 1.6 0 0 0 0c4.7 4.2 7.7 10.3 7.7 16.9zm-143.8-38.8h54.4v-67.5z"/>
				</g>
				<path id="&lt;Compound Path&gt;" fill-rule="evenodd" class="s6" d="m295.8 218.6c0 13-10.4 23-23.3 23h-4.2v31.7c0 13-10 23-23 23-12.9 0-22.9-10-22.9-23v-31.7h-131.6c-5 0-10-1.3-14.2-5-10.4-8-11.7-22.2-3.8-32.2l154.6-192.1c0.4 0 0.4-0.4 0.8-0.8 0.4-0.4 0.8-0.9 1.3-1.7 1.2-0.4 1.6-0.8 2-1.2 0.5-0.5 1.3-0.9 1.7-1.3 0.8-0.4 1.3-0.8 2.5-0.8 0.4-0.9 0.8-1.3 1.7-1.3 0.4-0.4 1.2-0.4 2.5-0.8 0.4 0 1.2 0 1.7-0.4 0.8 0 2 0 2.9 0 0 0 0.4 0 0.8 0 0.4 0 0.4 0 0.9 0 0.8 0 2 0 2.5 0 0.8 0.4 1.2 0.4 2 0.4 0.5 0.4 1.7 0.4 2.6 0.8 0.4 0 1.2 0.4 1.6 0.4 0.9 0.9 1.7 1.3 2.1 1.7 0.8 0.4 1.3 0.8 2.1 1.3 0 0 0.4 0 0.4 0.4 0.4 0 1.3 0.4 1.3 0.8 0.8 0.8 1.2 1.3 1.6 1.7 0.5 0.4 0.9 1.2 1.3 1.6 0.4 0.5 0.8 0.9 1.7 2.1 0 0.5 0.4 1.3 0.8 1.7 0.4 0.8 0.4 1.3 0.8 2.5 0 0.4 0.4 1.3 0.4 1.7 0.5 0.8 0.5 1.2 0.5 2.5 0 0.8 0.4 1.2 0.4 2.1q0 0.6 0 1.2v168.7h4.2c12.9 0 23.3 10.5 23.3 23zm-73.4-126.1l-83.2 103.1h83.2z"/>
			</g>
			<g id="&lt;Group&gt;">
				<g id="&lt;Group&gt;">
					<path id="&lt;Compound Path&gt;" fill-rule="evenodd" class="s12" d="m568.1 166c0 38-10 73.1-28 99.8-17.5 26.4-45.1 46.4-77.2 46.4-24.5 0-45.8-11-62.3-27.5q-0.7-0.8-1.5-1.5 0-0.1-0.1-0.1-0.4-0.4-0.8-0.8-0.4-0.4-0.8-0.8-0.7-0.7-1.5-1.5 0-0.1-0.1-0.1-0.4-0.4-0.8-0.8-0.4-0.4-0.8-0.8-0.7-0.7-1.4-1.5-0.1-0.1-0.2-0.1-0.4-0.4-0.8-0.8-0.4-0.4-0.7-0.8-0.8-0.7-1.5-1.5-0.1 0-0.1-0.1-0.4-0.4-0.9-0.8-0.3-0.4-0.7-0.8-0.8-0.7-1.5-1.4 0-0.1-0.1-0.2-0.4-0.4-0.8-0.8c-6.1-5.9-11.5-12.5-16.2-19.6-18.4-26.7-28-61.8-28.4-99.8 0.4-38.4 10-73.1 28.4-99.8 17.5-26.7 44.7-46.3 77.7-46.3 24.5 0 46.4 11.4 63.1 28.7q0.2 0.1 0.2 0.2c0.3 0.2 0.4 0.4 0.6 0.6 0.1 0 0.1 0.1 0.2 0.1 0.5 0.6 1.1 1.1 1.6 1.7q0.3 0.3 0.6 0.6 0.1 0.1 0.2 0.2 0.3 0.3 0.6 0.6c0 0 0.1 0 0.2 0.1 0.5 0.5 1.1 1.1 1.6 1.6q0.3 0.3 0.6 0.7 0.1 0.1 0.2 0.2 0.3 0.3 0.6 0.5c0 0.1 0.1 0.1 0.1 0.2 0.6 0.5 1.2 1.1 1.7 1.6q0.3 0.3 0.6 0.6 0.1 0.1 0.2 0.3 0.3 0.2 0.6 0.5c0 0 0.1 0.1 0.1 0.2 0.6 0.5 1.1 1 1.7 1.6q0.3 0.3 0.6 0.6 0.1 0.1 0.2 0.2 0.4 0.4 0.7 0.7c6.1 6 11.6 12.7 16.3 19.9 18 26.8 28 61.4 28 99.8zm-62.2-15.9c0-30-8.4-56.4-20.1-74.3q-1-1.4-2-2.7c-6.9-4.8-14-7.1-20.9-6.9-13-0.4-27.2 8-39.7 25.5-11.7 18-20 44.3-20 74.3 0 29.7 8.3 56.4 20 74q0.9 1.2 1.7 2.4c7.4 5.1 14.9 7.5 22.1 7.5 12.9 0 26.7-7.9 38.8-25.9 11.7-17.5 20.1-44.2 20.1-73.9z"/>
					<path id="&lt;Compound Path&gt;" fill-rule="evenodd" class="s7" d="m568.1 166c0 38-10 73.1-28 99.8-17.5 26.4-45.1 46.4-77.2 46.4-24.5 0-45.8-11-62.3-27.5q-0.7-0.8-1.5-1.5 0-0.1-0.1-0.1-0.4-0.4-0.8-0.8-0.4-0.4-0.8-0.8-0.7-0.7-1.5-1.5 0-0.1-0.1-0.1-0.4-0.4-0.8-0.8-0.4-0.4-0.8-0.8-0.7-0.7-1.4-1.5-0.1-0.1-0.2-0.1-0.4-0.4-0.8-0.8-0.4-0.4-0.7-0.8-0.8-0.7-1.5-1.5-0.1 0-0.1-0.1-0.4-0.4-0.9-0.8-0.3-0.4-0.7-0.8-0.8-0.7-1.5-1.4 0-0.1-0.1-0.2-0.4-0.4-0.8-0.8c-6.1-5.9-11.5-12.5-16.2-19.6-18.4-26.7-28-61.8-28.4-99.8 0.4-38.4 10-73.1 28.4-99.8 17.5-26.7 44.7-46.3 77.7-46.3 24.5 0 46.4 11.4 63.1 28.7q0.2 0.1 0.2 0.2c0.3 0.2 0.4 0.4 0.6 0.6 0.1 0 0.1 0.1 0.2 0.1 0.5 0.6 1.1 1.1 1.6 1.7q0.3 0.3 0.6 0.6 0.1 0.1 0.2 0.2 0.3 0.3 0.6 0.6c0 0 0.1 0 0.2 0.1 0.5 0.5 1.1 1.1 1.6 1.6q0.3 0.3 0.6 0.7 0.1 0.1 0.2 0.2 0.3 0.3 0.6 0.5c0 0.1 0.1 0.1 0.1 0.2 0.6 0.5 1.2 1.1 1.7 1.6q0.3 0.3 0.6 0.6 0.1 0.1 0.2 0.3 0.3 0.2 0.6 0.5c0 0 0.1 0.1 0.1 0.2 0.6 0.5 1.1 1 1.7 1.6q0.3 0.3 0.6 0.6 0.1 0.1 0.2 0.2 0.4 0.4 0.7 0.7c6.1 6 11.6 12.7 16.3 19.9 18 26.8 28 61.4 28 99.8zm-62.2-15.9c0-30-8.4-56.4-20.1-74.3q-1-1.4-2-2.7c-6.9-4.8-14-7.1-20.9-6.9-13-0.4-27.2 8-39.7 25.5-11.7 18-20 44.3-20 74.3 0 29.7 8.3 56.4 20 74q0.9 1.2 1.7 2.4c7.4 5.1 14.9 7.5 22.1 7.5 12.9 0 26.7-7.9 38.8-25.9 11.7-17.5 20.1-44.2 20.1-73.9z"/>
				</g>
				<path id="&lt;Compound Path&gt;" fill-rule="evenodd" class="s6" d="m340.9 150.1c0.4-38.4 10-73.1 28.4-99.8 17.5-26.7 44.7-46.3 77.7-46.3 32.1 0 59.7 19.6 77.2 46.3 18 26.7 28 61.4 28 99.8 0 38-10 73.1-28 99.8-17.5 26.3-45.1 46.4-77.2 46.4-33 0-60.2-20.1-77.7-46.4-18.4-26.7-28-61.8-28.4-99.8zm164.9 0c0-30-8.3-56.4-20-74.3-12.1-17.6-25.9-25.9-38.8-25.5-13-0.4-27.2 7.9-39.7 25.5-11.7 17.9-20.1 44.3-20.1 74.3 0 29.7 8.4 56.4 20.1 73.9 12.5 18 26.7 25.9 39.7 25.9 12.9 0 26.7-7.9 38.8-25.9 11.7-17.5 20-44.2 20-73.9z"/>
			</g>
			<g id="&lt;Group&gt;">
				<g id="&lt;Group&gt;">
					<path id="&lt;Compound Path&gt;" fill-rule="evenodd" class="s12" d="m832.3 234.5c0 13-10.4 23-23.4 23h-4.2v31.7c0 13-10 23-22.9 23-6.9 0-12.9-2.8-17.1-7.4q-0.8-0.7-1.6-1.6 0 0 0 0-0.8-0.7-1.5-1.5l-0.1-0.1q-0.8-0.7-1.6-1.5 0-0.1 0-0.1-0.8-0.7-1.5-1.5l-0.1-0.1q-0.8-0.7-1.5-1.5 0-0.1-0.1-0.1-0.8-0.7-1.5-1.5l-0.1-0.1q-0.8-0.7-1.5-1.5 0 0-0.1-0.1-0.8-0.7-1.5-1.5h-0.1q-0.8-0.8-1.5-1.6 0 0-0.1 0c-4.6-4.2-7.4-10.3-7.4-17.2v-15.8h-115.7c-5 0-10-1.3-14.2-5q-1.8-1.4-3.2-3-0.9-0.8-1.6-1.6-0.9-0.8-1.6-1.6-0.9-0.7-1.6-1.6-0.9-0.7-1.6-1.6-0.9-0.7-1.6-1.6-0.8-0.7-1.6-1.6-0.8-0.7-1.6-1.6-0.8-0.7-1.6-1.6-0.8-0.7-1.5-1.6c-8.9-8.1-9.6-21.2-2.1-30.7l154.5-192.1c0.4 0 0.4-0.4 0.8-0.8 0.4-0.4 0.8-0.9 1.3-1.7 1.2-0.4 1.6-0.8 2.1-1.3 0.4-0.4 1.2-0.8 1.6-1.2 0.9-0.4 1.3-0.8 2.5-0.8 0.5-0.9 0.9-1.3 1.7-1.3 0.4-0.4 1.3-0.4 2.5-0.8 0.4 0 1.3 0 1.7-0.4 0 0 3.3 0 3.7 0 0.5 0 3 0 3.4 0 0.8 0.4 1.2 0.4 2.1 0.4 0.4 0.4 1.6 0.4 2.5 0.8 0.4 0 1.2 0.4 1.7 0.4 0.8 0.9 1.6 1.3 2 1.7 0.9 0.4 1.3 0.8 2.1 1.2 0 0 0.4 0 0.4 0.5 0.5 0 1.3 0.4 1.3 0.8l0.9 0.9c0.4 0.2 0.7 0.4 0.7 0.7l0.1 0.1q0.5 0.5 0.8 0.8c0.4 0.2 0.7 0.4 0.7 0.7l0.1 0.1q0.5 0.5 0.8 0.8c0.3 0.2 0.7 0.4 0.7 0.7v0.1q0.6 0.5 0.9 0.8c0.3 0.2 0.7 0.4 0.7 0.7q0.5 0.6 0.9 0.9c0.3 0.1 0.6 0.4 0.6 0.7h0.1q0.5 0.6 0.9 0.9c0.3 0.1 0.6 0.4 0.6 0.6l0.1 0.1q0.5 0.5 0.8 0.9c0.4 0.1 0.7 0.4 0.7 0.6l0.1 0.1q0.5 0.5 0.8 0.9c0.4 0.1 0.7 0.4 0.7 0.6l0.1 0.1q0.5 0.5 0.8 0.8c0.4 0.2 0.7 0.5 0.7 0.7l0.1 0.1q0.5 0.5 0.8 0.8c0.4 0.2 0.7 0.5 0.7 0.7l1.7 1.7c0.4 0.4 0.8 1.2 1.2 1.7 0.5 0.4 0.9 0.8 1.7 2 0 0.5 0.4 1.3 0.8 1.7 0.5 0.8 0.5 1.3 0.9 2.5 0 0.4 0.4 1.3 0.4 1.7 0.4 0.8 0.4 1.3 0.4 2.5 0 0.8 0.4 1.3 0.4 2.1v157.2c2.1 1.2 4 2.7 5.6 4.5q0-0.1 0 0 0.8 0.7 1.6 1.5 0 0 0 0.1 0.8 0.7 1.6 1.5 0 0 0 0.1 0.8 0.7 1.6 1.5 0 0 0 0 0.8 0.8 1.6 1.6 0 0 0 0 0.8 0.8 1.6 1.6 0 0 0 0 0.8 0.8 1.6 1.6 0 0 0 0 0.8 0.8 1.6 1.6 0 0 0 0 0.8 0.7 1.5 1.6 0.1 0 0.1 0 0.8 0.7 1.5 1.6 0.1 0 0.1 0c4.6 4.2 7.6 10.3 7.6 16.9zm-143.8-38.8h54.4v-67.5z"/>
					<path id="&lt;Compound Path&gt;" fill-rule="evenodd" class="s7" d="m832.3 234.5c0 13-10.4 23-23.4 23h-4.2v31.7c0 13-10 23-22.9 23-6.9 0-12.9-2.8-17.1-7.4q-0.8-0.7-1.6-1.6 0 0 0 0-0.8-0.7-1.5-1.5l-0.1-0.1q-0.8-0.7-1.6-1.5 0-0.1 0-0.1-0.8-0.7-1.5-1.5l-0.1-0.1q-0.8-0.7-1.5-1.5 0-0.1-0.1-0.1-0.8-0.7-1.5-1.5l-0.1-0.1q-0.8-0.7-1.5-1.5 0 0-0.1-0.1-0.8-0.7-1.5-1.5h-0.1q-0.8-0.8-1.5-1.6 0 0-0.1 0c-4.6-4.2-7.4-10.3-7.4-17.2v-15.8h-115.7c-5 0-10-1.3-14.2-5q-1.8-1.4-3.2-3-0.9-0.8-1.6-1.6-0.9-0.8-1.6-1.6-0.9-0.7-1.6-1.6-0.9-0.7-1.6-1.6-0.9-0.7-1.6-1.6-0.8-0.7-1.6-1.6-0.8-0.7-1.6-1.6-0.8-0.7-1.6-1.6-0.8-0.7-1.5-1.6c-8.9-8.1-9.6-21.2-2.1-30.7l154.5-192.1c0.4 0 0.4-0.4 0.8-0.8 0.4-0.4 0.8-0.9 1.3-1.7 1.2-0.4 1.6-0.8 2.1-1.3 0.4-0.4 1.2-0.8 1.6-1.2 0.9-0.4 1.3-0.8 2.5-0.8 0.5-0.9 0.9-1.3 1.7-1.3 0.4-0.4 1.3-0.4 2.5-0.8 0.4 0 1.3 0 1.7-0.4 0 0 3.3 0 3.7 0 0.5 0 3 0 3.4 0 0.8 0.4 1.2 0.4 2.1 0.4 0.4 0.4 1.6 0.4 2.5 0.8 0.4 0 1.2 0.4 1.7 0.4 0.8 0.9 1.6 1.3 2 1.7 0.9 0.4 1.3 0.8 2.1 1.2 0 0 0.4 0 0.4 0.5 0.5 0 1.3 0.4 1.3 0.8l0.9 0.9c0.4 0.2 0.7 0.4 0.7 0.7l0.1 0.1q0.5 0.5 0.8 0.8c0.4 0.2 0.7 0.4 0.7 0.7l0.1 0.1q0.5 0.5 0.8 0.8c0.3 0.2 0.7 0.4 0.7 0.7v0.1q0.6 0.5 0.9 0.8c0.3 0.2 0.7 0.4 0.7 0.7q0.5 0.6 0.9 0.9c0.3 0.1 0.6 0.4 0.6 0.7h0.1q0.5 0.6 0.9 0.9c0.3 0.1 0.6 0.4 0.6 0.6l0.1 0.1q0.5 0.5 0.8 0.9c0.4 0.1 0.7 0.4 0.7 0.6l0.1 0.1q0.5 0.5 0.8 0.9c0.4 0.1 0.7 0.4 0.7 0.6l0.1 0.1q0.5 0.5 0.8 0.8c0.4 0.2 0.7 0.5 0.7 0.7l0.1 0.1q0.5 0.5 0.8 0.8c0.4 0.2 0.7 0.5 0.7 0.7l1.7 1.7c0.4 0.4 0.8 1.2 1.2 1.7 0.5 0.4 0.9 0.8 1.7 2 0 0.5 0.4 1.3 0.8 1.7 0.5 0.8 0.5 1.3 0.9 2.5 0 0.4 0.4 1.3 0.4 1.7 0.4 0.8 0.4 1.3 0.4 2.5 0 0.8 0.4 1.3 0.4 2.1v157.2c2.1 1.2 4 2.7 5.6 4.5q0-0.1 0 0 0.8 0.7 1.6 1.5 0 0 0 0.1 0.8 0.7 1.6 1.5 0 0 0 0.1 0.8 0.7 1.6 1.5 0 0 0 0 0.8 0.8 1.6 1.6 0 0 0 0 0.8 0.8 1.6 1.6 0 0 0 0 0.8 0.8 1.6 1.6 0 0 0 0 0.8 0.8 1.6 1.6 0 0 0 0 0.8 0.7 1.5 1.6 0.1 0 0.1 0 0.8 0.7 1.5 1.6 0.1 0 0.1 0c4.6 4.2 7.6 10.3 7.6 16.9zm-143.8-38.8h54.4v-67.5z"/>
				</g>
				<path id="&lt;Compound Path&gt;" fill-rule="evenodd" class="s6" d="m816.4 218.6c0 13-10.5 23-23.4 23h-4.2v31.7c0 13-10 23-23 23-12.9 0-22.9-10-22.9-23v-31.7h-131.6c-5 0-10-1.3-14.2-5-10.4-8-11.7-22.2-3.7-32.2l154.5-192.1c0.4 0 0.4-0.4 0.8-0.8 0.4-0.4 0.9-0.9 1.3-1.7 1.2-0.4 1.6-0.8 2.1-1.2 0.4-0.5 1.2-0.9 1.6-1.3 0.9-0.4 1.3-0.8 2.5-0.8 0.4-0.9 0.9-1.3 1.7-1.3 0.4-0.4 1.3-0.4 2.5-0.8 0.4 0 1.3 0 1.7-0.4 0.8 0 2.1 0 2.9 0 0 0 0.4 0 0.8 0 0.5 0 0.5 0 0.9 0 0.8 0 2.1 0 2.5 0 0.8 0.4 1.2 0.4 2.1 0.4 0.4 0.4 1.6 0.4 2.5 0.8 0.4 0 1.2 0.4 1.6 0.4 0.9 0.9 1.7 1.3 2.1 1.7 0.9 0.4 1.3 0.8 2.1 1.3 0 0 0.4 0 0.4 0.4 0.5 0 1.3 0.4 1.3 0.8 0.8 0.8 1.2 1.3 1.7 1.7 0.4 0.4 0.8 1.2 1.2 1.6 0.4 0.5 0.9 0.9 1.7 2.1 0 0.5 0.4 1.3 0.8 1.7 0.4 0.8 0.4 1.3 0.9 2.5 0 0.4 0.4 1.3 0.4 1.7 0.4 0.8 0.4 1.2 0.4 2.5 0 0.8 0.4 1.2 0.4 2.1q0 0.6 0 1.2v168.7h4.2c12.9 0 23.4 10.5 23.4 23zm-73.5-126.1l-83.1 103.1h83.1z"/>
			</g>
		</g>
		<g id="&lt;Group&gt;">
			<path id="&lt;Compound Path&gt;" fill-rule="evenodd" class="s2" d="m319.3 779.8h-3.9v6.9c0 0.9-0.8 1.7-1.8 1.7-1 0-1.7-0.8-1.7-1.7v-18.7c0-1 0.7-1.8 1.7-1.8h5.7c3.7 0 6.8 3.1 6.8 6.8 0 3.7-3.1 6.8-6.8 6.8zm-3.9-3.5h3.9c1.8 0 3.2-1.5 3.3-3.3-0.1-1.8-1.5-3.2-3.3-3.2h-3.9z"/>
			<path id="&lt;Compound Path&gt;" fill-rule="evenodd" class="s2" d="m339.4 783.2h-7.7l-1.6 4.1c-0.2 0.7-0.9 1.1-1.6 1.1q-0.3 0-0.6-0.1c-0.9-0.3-1.4-1.4-1-2.3l7-18.6c0.2-0.7 0.9-1.2 1.6-1.1 0.8-0.1 1.4 0.4 1.7 1.1l7 18.6c0.3 0.9-0.1 2-1 2.3-0.2 0.1-0.4 0.1-0.6 0.1-0.7 0-1.4-0.4-1.7-1.1zm-1.3-3.5l-2.5-6.8-2.6 6.8z"/>
			<path id="&lt;Compound Path&gt;" class="s2" d="m346.5 777c0-6.3 5.3-11.4 11.7-11.4 2.7 0 5.3 0.9 7.2 2.5 0.9 0.6 1 1.7 0.4 2.5-0.6 0.8-1.8 1-2.6 0.3-1.3-1-3.1-1.7-5-1.7-2.3 0-4.3 0.9-5.7 2.3-1.5 1.5-2.3 3.4-2.3 5.5 0 2.1 0.8 4.1 2.3 5.5 1.4 1.4 3.4 2.3 5.7 2.3 1.6 0 3.1-0.5 4.4-1.2v-4.4h-4.6c-0.9 0-1.8-0.8-1.8-1.8 0-1 0.9-1.7 1.8-1.7h6.3q0 0 0 0 0 0 0 0c1 0 1.9 0.7 1.9 1.7v7c0 0.3-0.1 0.4-0.1 0.6-0.1 0-0.1 0.1-0.1 0.1v0.1q-0.1 0.4-0.6 0.7c-2 1.6-4.5 2.5-7.2 2.5-6.4 0-11.7-5-11.7-11.4z"/>
			<path id="&lt;Compound Path&gt;" class="s2" d="m373.3 786.7v-18.7c0-1 0.7-1.8 1.7-1.8h0.1q-0.1 0 0 0h10.3c0.9 0 1.7 0.8 1.7 1.8 0 1-0.8 1.8-1.7 1.8h-8.6v5.7h7.4c0.9 0 1.7 0.9 1.7 1.8 0 1-0.8 1.8-1.7 1.8h-7.4v5.8h8.6c0.9 0 1.7 0.8 1.7 1.8 0 0.9-0.8 1.7-1.7 1.7h-10.3c0 0 0 0 0 0h-0.1c-1 0-1.7-0.8-1.7-1.7z"/>
			<path id="&lt;Compound Path&gt;" class="s2" d="m405 786.7c0 0.9-0.8 1.7-1.7 1.7-1 0-1.7-0.8-1.7-1.7v-18.4q0 0 0-0.1c-0.1-0.5 0.2-1.1 0.7-1.4 0.8-0.6 1.8-0.4 2.4 0.4l10.2 14.1v-13c0-1 0.8-1.7 1.7-1.7 1 0 1.8 0.7 1.8 1.7v18.4c0 0.9-0.8 1.7-1.8 1.7-0.5 0-1-0.3-1.3-0.6q-0.1-0.1-0.1-0.2l-10.2-14.1z"/>
			<path id="&lt;Compound Path&gt;" fill-rule="evenodd" class="s2" d="m441.8 769c2 2.1 3.2 4.9 3.2 8 0 3.1-1.2 6-3.2 8-1.8 2.1-4.6 3.4-7.5 3.4-3.1 0-5.9-1.3-7.8-3.4-1.9-2-3.1-4.9-3.1-8 0-3.1 1.2-5.9 3.1-8 1.9-2.1 4.7-3.4 7.8-3.4 2.9 0 5.7 1.3 7.5 3.4zm-0.4 8c0-2.2-0.8-4.1-2.1-5.5-1.4-1.5-3.1-2.3-5-2.3-2.1 0-3.8 0.8-5.2 2.3-1.3 1.4-2.1 3.3-2.1 5.5 0 2.2 0.8 4.1 2.1 5.5 1.4 1.4 3.1 2.3 5.2 2.3 1.9 0 3.6-0.9 5-2.3 1.3-1.4 2.1-3.3 2.1-5.5z"/>
			<path id="&lt;Compound Path&gt;" class="s2" d="m463.1 769.8h-5.1v16.9c0 0.9-0.7 1.7-1.7 1.7-1 0-1.7-0.8-1.7-1.7v-16.9h-5c-1 0-1.8-0.9-1.8-1.8 0-1 0.8-1.8 1.8-1.8h13.5c0.9 0 1.7 0.8 1.7 1.8 0 0.9-0.8 1.8-1.7 1.8z"/>
			<path id="&lt;Compound Path&gt;" class="s2" d="m479.5 786.7v-18.7c0-1 0.8-1.8 1.8-1.8 0 0 0 0 0.1 0h10.2c0.9 0 1.8 0.8 1.8 1.8 0 1-0.9 1.8-1.8 1.8h-8.6v5.7h7.4c1 0 1.8 0.9 1.8 1.8 0 1-0.8 1.8-1.8 1.8h-7.4v7.6c0 0.9-0.8 1.7-1.7 1.7-1 0-1.8-0.8-1.8-1.7z"/>
			<path id="&lt;Compound Path&gt;" fill-rule="evenodd" class="s2" d="m515.5 769c2 2.1 3.2 4.9 3.2 8 0 3.1-1.2 6-3.2 8-1.9 2.1-4.6 3.4-7.6 3.4-3 0-5.8-1.3-7.7-3.4-2-2-3.1-4.9-3.1-8 0-3.1 1.1-5.9 3.1-8 1.9-2.1 4.7-3.4 7.7-3.4 3 0 5.7 1.3 7.6 3.4zm-0.4 8c0-2.2-0.9-4.1-2.2-5.5-1.3-1.5-3.1-2.3-5-2.3-2 0-3.8 0.8-5.1 2.3-1.3 1.4-2.1 3.3-2.1 5.5 0 2.2 0.8 4.1 2.1 5.5 1.3 1.4 3.1 2.3 5.1 2.3 1.9 0 3.7-0.9 5-2.3 1.3-1.4 2.2-3.3 2.2-5.5z"/>
			<path id="&lt;Compound Path&gt;" class="s2" d="m532.7 788.4c-5.1 0-9.2-4.1-9.2-9.2v-11.2c0-1 0.8-1.8 1.8-1.8 0.9 0 1.8 0.8 1.8 1.8v11.2c0 3.2 2.5 5.7 5.6 5.7 3.1 0 5.6-2.5 5.6-5.7v-11.2c0-1 0.8-1.8 1.8-1.8 1 0 1.7 0.8 1.7 1.8v11.2c0 5.1-4 9.2-9.1 9.2z"/>
			<path id="&lt;Compound Path&gt;" class="s2" d="m552.3 786.7c0 0.9-0.8 1.7-1.7 1.7-1 0-1.8-0.8-1.8-1.7v-18.4q0 0 0-0.1c0-0.5 0.3-1.1 0.7-1.4 0.8-0.6 1.9-0.4 2.4 0.4l10.3 14.1v-13c0-1 0.7-1.7 1.7-1.7 0.9 0 1.7 0.7 1.7 1.7v18.4c0 0.9-0.8 1.7-1.7 1.7-0.5 0-1-0.3-1.3-0.6q-0.1-0.1-0.2-0.2l-10.1-14.1z"/>
			<path id="&lt;Compound Path&gt;" fill-rule="evenodd" class="s2" d="m571.6 786.7v-18.7c0-1 0.8-1.8 1.8-1.8h3.7c6.1 0 11 5 11 11.1 0 6.1-4.9 11.1-11 11.1h-3.7c-1 0-1.8-0.8-1.8-1.7zm3.5-1.8h2c4.2 0 7.5-3.4 7.5-7.6 0-4.2-3.3-7.5-7.5-7.5h-2z"/>
		</g>
	</g>
	<g id="Campfire">
		<g id="&lt;Group&gt;">
			<g id="&lt;Group&gt;">
				<path id="&lt;Path&gt;" class="s13" d="m484.5 630c0 11.7-9.5 21.2-21.2 21.2-11.8 0-21.3-9.5-21.3-21.2 0-11.8 9.5-21.3 21.3-21.3 11.7 0 21.2 9.5 21.2 21.3z"/>
				<path id="&lt;Path&gt;" class="s13" d="m479.6 634.8c0 9-7.3 16.3-16.3 16.3-9.1 0-16.4-7.3-16.4-16.3 0-9 7.3-16.3 16.4-16.3 9 0 16.3 7.3 16.3 16.3z"/>
			</g>
			<g id="&lt;Group&gt;">
				<g id="&lt;Group&gt;">
					<g id="&lt;Group&gt;">
						<path id="&lt;Path&gt;" class="s14" d="m464.7 651.1c0 0-13-1.9-13.7-1.4-0.8 0.5-1.5 4.3 0.1 5.2 1.5 0.9 13.4-0.7 13.4-0.7 0 0 1.3-1.2 0.2-3.1z"/>
						<path id="&lt;Path&gt;" class="s15" d="m464.7 651.1c0 0-13-1.9-13.7-1.4-0.8 0.5-1.5 4.3 0.1 5.2 1.5 0.9 13.4-0.7 13.4-0.7 0 0 1.3-1.2 0.2-3.1z"/>
						<path id="&lt;Path&gt;" class="s16" d="m451 649.9c0.4-0.1 1.1 1.2 0.9 2.6-0.1 1.4-0.6 2.3-0.9 2.3-0.2-0.1-0.9-0.9-0.8-2.6 0.1-1.3 0.5-2.3 0.8-2.3z"/>
						<g id="&lt;Group&gt;" style="opacity: .2">
							<path id="&lt;Path&gt;" class="s17" d="m452.4 650.2q1.1-0.1 2.2 0 0.6 0 1.2 0.1 0.2 0 0.5 0.1c0.2 0 0.4 0.1 0.6 0.1 0.7 0.1 1.4 0.2 2.1 0.2q1.2 0.1 2.3 0.2-1.1 0.1-2.3 0.1c-0.7 0-1.5 0-2.2-0.1-0.2-0.1-0.4-0.1-0.6-0.2q-0.2 0-0.5-0.1-0.5-0.1-1.1-0.1z"/>
							<path id="&lt;Path&gt;" class="s17" d="m453.9 650.9q0.8 0.1 1.5 0.3c0.6 0.1 1.1 0.2 1.6 0.2 0.5 0.1 1 0.1 1.5 0.1q0.8-0.1 1.6-0.1-0.7 0.2-1.5 0.3c-0.6 0.1-1.1 0.2-1.7 0.1q-0.8-0.1-1.5-0.4-0.8-0.2-1.5-0.5z"/>
							<path id="&lt;Path&gt;" class="s17" d="m460.2 652.1c0.7-0.5 1.5-0.8 2.4-0.8q0.6-0.1 1.2 0.2 0.4 0.1 0.6 0.4 0.1 0.1 0.2 0.3 0 0 0 0.1 0 0.1 0 0.1 0 0 0 0.1-0.1 0.1-0.1 0.1-0.5 0.5-1.2 0.6-0.3 0.1-0.7 0-0.3-0.1-0.6-0.3c-0.2-0.1-0.4-0.2-0.5-0.5 0 0 0-0.1 0.1-0.2q0.1-0.1 0.1-0.1 0.2-0.1 0.4-0.1 0.3-0.1 0.6 0c0.2 0 0.4 0.1 0.6 0.2-0.4-0.2-0.8-0.1-1.2 0q-0.2 0-0.3 0-0.1 0.1 0 0.2c0 0.1 0.2 0.2 0.4 0.3q0.2 0.1 0.5 0.2 0.3 0.1 0.5 0c0.4-0.1 0.8-0.3 1-0.5q0.1-0.1 0.1-0.1 0 0 0 0 0 0 0 0-0.1-0.1-0.1-0.2-0.2-0.2-0.5-0.3c-0.3-0.2-0.7-0.2-1.1-0.3q-0.6 0-1.2 0.2-0.6 0.2-1.2 0.4z"/>
							<path id="&lt;Path&gt;" class="s17" d="m464.6 653.4q-0.8 0.4-1.7 0.5-0.4 0-0.8 0-0.5 0-0.9-0.2c-0.5-0.2-1-0.5-1.5-0.7q-0.7-0.4-1.5-0.6c0.5 0 1.1 0.1 1.6 0.3 0.6 0.2 1 0.5 1.5 0.7q0.8 0.3 1.6 0.2 0.8 0 1.7-0.2z"/>
							<path id="&lt;Path&gt;" class="s17" d="m451.9 654.5q1 0 2 0c0.7 0 1.3 0 2-0.1 0.6-0.1 1.3-0.1 2-0.1q1 0.1 2 0.2l-2 0.1c-0.7 0-1.3 0-2 0.2-0.7 0.1-1.3 0-2 0q-1-0.1-2-0.3z"/>
							<path id="&lt;Path&gt;" class="s17" d="m460.9 654.1q-0.8-0.3-1.6-0.4-0.5-0.1-0.9-0.2c-0.3 0-0.5 0-0.8 0q-0.8 0.2-1.7 0.4-0.4 0-0.8 0.1c-0.3 0-0.6 0-0.9-0.1q-0.4-0.1-0.9-0.2c-0.2-0.1-0.5-0.2-0.8-0.5q0-0.1-0.1-0.3 0-0.1 0.1-0.3c0.1-0.2 0.2-0.2 0.4-0.3q0.4-0.2 0.9-0.2 0.4 0 0.8 0.1c0.3 0 0.6 0.1 0.9 0.3 0 0 0.1 0.1 0.1 0.2 0 0.1-0.1 0.2-0.2 0.2q-0.2 0.1-0.4 0.1-0.4 0-0.8 0 0.4 0 0.8-0.1c0.2 0 0.7-0.2 0.4-0.3-0.2-0.1-0.5-0.2-0.8-0.2q-0.4 0-0.8 0-0.4 0.1-0.8 0.2c-0.1 0-0.2 0.1-0.2 0.2q-0.1 0.1 0 0.2c0.2 0.1 0.4 0.3 0.7 0.3q0.4 0.2 0.8 0.3c0.5 0.1 1 0 1.6-0.1 0.6-0.1 1.1-0.2 1.7-0.2q0.2-0.1 0.4-0.1 0.3 0 0.5 0.1 0.4 0.1 0.8 0.2 0.8 0.2 1.6 0.6z"/>
							<path id="&lt;Path&gt;" class="s17" d="m457.3 652.5c-0.8-0.2-1.5-0.4-2.3-0.6l-1.1-0.3c-0.3-0.1-0.7-0.2-1.1-0.2 0.4-0.1 0.8-0.1 1.2 0q0.6 0 1.1 0.2c0.8 0.2 1.5 0.5 2.2 0.9z"/>
						</g>
					</g>
					<g id="&lt;Group&gt;">
						<path id="&lt;Path&gt;" class="s14" d="m462.9 651c0 0 13-1.7 13.8-1.2 0.8 0.5 1.4 4.3-0.1 5.2-1.6 0.9-13.5-0.9-13.5-0.9 0 0-1.3-1.2-0.2-3.1z"/>
						<path id="&lt;Path&gt;" class="s15" d="m462.9 651c0 0 13-1.7 13.8-1.2 0.8 0.5 1.4 4.3-0.1 5.2-1.6 0.9-13.5-0.9-13.5-0.9 0 0-1.3-1.2-0.2-3.1z"/>
						<path id="&lt;Path&gt;" class="s16" d="m476.6 649.9c-0.4-0.1-1 1.2-0.9 2.7 0.1 1.3 0.6 2.3 0.9 2.2 0.2 0 0.9-0.8 0.8-2.6-0.1-1.2-0.4-2.2-0.8-2.3z"/>
						<g id="&lt;Group&gt;" style="opacity: .2">
							<path id="&lt;Path&gt;" class="s17" d="m463.4 653.7l2.2 0.1q0.6 0 1.1 0 0.3 0 0.6 0c0.1 0 0.4 0 0.5 0 0.8 0 1.5 0.1 2.3 0.2q1.1 0.2 2.2 0.5-1.2-0.1-2.3-0.2c-0.7-0.1-1.4-0.2-2.2-0.2-0.2 0-0.3 0.1-0.5 0.1q-0.3 0-0.6 0-0.5 0-1.1-0.1-1.1-0.1-2.2-0.4z"/>
							<path id="&lt;Path&gt;" class="s17" d="m464.7 653.7q0.8-0.3 1.6-0.5 0.8-0.1 1.6-0.2c0.5 0 1.1 0.1 1.6 0.2q0.8 0.2 1.5 0.4-0.8 0-1.6-0.1c-0.5-0.1-1-0.2-1.5-0.1-0.5 0-1 0.1-1.6 0.1q-0.8 0.1-1.6 0.2z"/>
							<path id="&lt;Path&gt;" class="s17" d="m471.2 652.9q0.5 0.4 1.1 0.6 0.6 0.2 1.2 0.2c0.4 0 0.8 0 1.1-0.2q0.3-0.1 0.5-0.2 0.1-0.1 0.1-0.2 0 0 0 0 0 0 0 0 0-0.1 0-0.1c-0.3-0.3-0.6-0.5-1-0.6q-0.2-0.1-0.5 0-0.3 0-0.6 0.1c-0.1 0.1-0.3 0.2-0.4 0.3q0 0.1 0.1 0.1 0.1 0.1 0.2 0.1c0.4 0.2 0.8 0.2 1.2 0.1-0.1 0.1-0.4 0.1-0.6 0.2q-0.3 0-0.6-0.1-0.2 0-0.3-0.1-0.1 0-0.2-0.1c0-0.1 0-0.2 0-0.3 0.1-0.2 0.3-0.3 0.5-0.4q0.3-0.2 0.6-0.3 0.4 0 0.7 0.1 0.7 0.1 1.2 0.7 0 0 0.1 0.1 0 0.1 0 0.1 0 0 0 0.1 0 0.1 0 0.1-0.1 0.2-0.3 0.3-0.2 0.3-0.6 0.4-0.6 0.2-1.2 0.1c-0.9-0.1-1.7-0.5-2.3-1.1z"/>
							<path id="&lt;Path&gt;" class="s17" d="m475.6 652q-0.8-0.2-1.6-0.3-0.8-0.1-1.6 0.1c-0.5 0.1-1 0.3-1.6 0.5-0.5 0.2-1.1 0.3-1.7 0.2q0.9-0.1 1.6-0.4c0.5-0.3 1-0.5 1.6-0.7q0.4-0.1 0.9-0.1 0.4 0 0.8 0.1 0.9 0.2 1.6 0.6z"/>
							<path id="&lt;Path&gt;" class="s17" d="m467.8 650.8q1-0.2 2-0.3c0.7-0.1 1.3-0.1 2 0 0.7 0.1 1.3 0.1 2 0.1l2 0.1q-1 0.2-2 0.2c-0.7 0-1.4 0.1-2-0.1-0.6-0.1-1.3 0-2 0q-1 0-2 0z"/>
							<path id="&lt;Path&gt;" class="s17" d="m472 651.1q-0.8 0.2-1.6 0.4-0.5 0.1-0.9 0.1-0.2 0.1-0.4 0.1-0.3-0.1-0.5-0.1c-0.5-0.1-1.1-0.3-1.6-0.4-0.6-0.1-1.1-0.2-1.7-0.2q-0.4 0.1-0.8 0.2c-0.2 0.1-0.5 0.2-0.7 0.3q-0.1 0.1 0 0.2c0 0.1 0.1 0.2 0.2 0.2q0.4 0.2 0.8 0.2 0.4 0.1 0.8 0.1c0.3 0 0.6 0 0.8-0.1 0.3-0.1-0.1-0.3-0.4-0.4q-0.4-0.1-0.8-0.1 0.4 0 0.8 0 0.3 0.1 0.5 0.2c0 0 0.1 0.1 0.1 0.2 0 0.1-0.1 0.2-0.1 0.2-0.3 0.2-0.6 0.2-0.9 0.2q-0.4 0.1-0.9 0-0.4 0-0.8-0.2c-0.2-0.1-0.3-0.2-0.4-0.4q-0.1-0.1 0-0.3 0-0.1 0.1-0.2c0.3-0.3 0.6-0.4 0.8-0.5q0.5-0.1 0.9-0.1c0.3-0.1 0.6 0 0.9 0q0.4 0.1 0.8 0.2 0.9 0.2 1.7 0.4c0.3 0.1 0.5 0.1 0.8 0.1q0.4 0 0.8-0.1 0.9-0.1 1.7-0.2z"/>
							<path id="&lt;Path&gt;" class="s17" d="m468.2 652.4c-0.7 0.3-1.4 0.5-2.2 0.7q-0.5 0.1-1.1 0.1c-0.4 0-0.8 0-1.2-0.2 0.4 0.1 0.8 0 1.2-0.1l1.1-0.2c0.7-0.1 1.5-0.3 2.2-0.3z"/>
							<path id="&lt;Path&gt;" class="s17" d="m471.7 653.8c0.6 0.2 1.1 0.4 1.7 0.5q0.5 0.1 0.9 0.2 0.4 0 0.9 0-0.4 0.2-0.9 0.2-0.5 0.1-1-0.1-0.4-0.1-0.8-0.3-0.5-0.2-0.8-0.5z"/>
						</g>
					</g>
				</g>
			</g>
			<g id="&lt;Group&gt;">
				<g id="&lt;Group&gt;">
					<path id="&lt;Path&gt;" class="s14" d="m473.7 623.5c0 0.2 0.2 0.4 0.5 0.4 0.2 0 0.4-0.2 0.4-0.4 0-0.2-0.2-0.4-0.4-0.4-0.3 0-0.5 0.2-0.5 0.4z"/>
					<path id="&lt;Path&gt;" class="s14" d="m469.4 606.2c0 0.2 0.2 0.4 0.4 0.4 0.3 0 0.4-0.2 0.4-0.4 0-0.2-0.1-0.4-0.4-0.4-0.2 0-0.4 0.2-0.4 0.4z"/>
					<path id="&lt;Path&gt;" class="s14" d="m454 620.9c0.2 0.1 0.5 0.1 0.6-0.1 0.1-0.2 0.1-0.4-0.1-0.6-0.1-0.1-0.4-0.1-0.5 0.1-0.2 0.2-0.1 0.4 0 0.6z"/>
					<path id="&lt;Path&gt;" class="s14" d="m450.4 645.5c0 0.2 0.2 0.4 0.4 0.4 0.3 0 0.4-0.2 0.4-0.4 0-0.3-0.1-0.5-0.4-0.5-0.2 0-0.4 0.2-0.4 0.5z"/>
					<path id="&lt;Path&gt;" class="s14" d="m475.6 642.7c0 0.2 0.2 0.4 0.4 0.4 0.2 0 0.4-0.2 0.4-0.4 0-0.2-0.2-0.4-0.4-0.4-0.2 0-0.4 0.2-0.4 0.4z"/>
					<path id="&lt;Path&gt;" class="s14" d="m473.2 626.1c0 0.3 0.2 0.6 0.5 0.6 0.3 0 0.6-0.3 0.6-0.6 0-0.3-0.3-0.5-0.6-0.5-0.3 0-0.5 0.2-0.5 0.5z"/>
					<path id="&lt;Path&gt;" class="s14" d="m456.2 616.4c0.3 0.1 0.6 0.1 0.8-0.1 0.2-0.3 0.1-0.6-0.1-0.8-0.2-0.2-0.6-0.1-0.8 0.1-0.2 0.2-0.1 0.6 0.1 0.8z"/>
					<path id="&lt;Path&gt;" class="s14" d="m451.5 636.5c0 0.3 0.2 0.6 0.5 0.6 0.3 0 0.6-0.3 0.6-0.6 0-0.3-0.3-0.5-0.6-0.5-0.3 0-0.5 0.2-0.5 0.5z"/>
					<path id="&lt;Path&gt;" class="s14" d="m472.3 625.3c0 0.2 0.1 0.3 0.3 0.3 0.1 0 0.2-0.1 0.2-0.3 0-0.1-0.1-0.2-0.2-0.2-0.2 0-0.3 0.1-0.3 0.2z"/>
					<path id="&lt;Path&gt;" class="s14" d="m474.3 633c0 0.1 0.2 0.2 0.3 0.2 0.1 0 0.2-0.1 0.2-0.2 0-0.1-0.1-0.3-0.2-0.3-0.1 0-0.3 0.2-0.3 0.3z"/>
					<path id="&lt;Path&gt;" class="s14" d="m477.4 640.6c0 0.1 0.1 0.2 0.3 0.2 0.1 0 0.2-0.1 0.2-0.2 0-0.2-0.1-0.3-0.2-0.3-0.2 0-0.3 0.1-0.3 0.3z"/>
					<path id="&lt;Path&gt;" class="s14" d="m450.7 634.8c0 0.2 0.1 0.3 0.2 0.3 0.1 0 0.3-0.1 0.3-0.3 0-0.1-0.2-0.2-0.3-0.2-0.1 0-0.2 0.1-0.2 0.2z"/>
					<path id="&lt;Path&gt;" class="s14" d="m475.5 617.9c0 0.1 0.1 0.2 0.3 0.2 0.1 0 0.2-0.1 0.2-0.2 0-0.2-0.1-0.3-0.2-0.3-0.2 0-0.3 0.1-0.3 0.3z"/>
					<path id="&lt;Path&gt;" class="s14" d="m464.7 615.7c0 0.1 0.1 0.2 0.2 0.2 0.1 0 0.2-0.1 0.2-0.2 0-0.1-0.1-0.3-0.2-0.3-0.1 0-0.2 0.2-0.2 0.3z"/>
					<path id="&lt;Path&gt;" class="s14" d="m462.9 612.1c0 0.2 0.1 0.3 0.2 0.3 0.2 0 0.3-0.1 0.3-0.3 0-0.1-0.1-0.2-0.3-0.2-0.1 0-0.2 0.1-0.2 0.2z"/>
				</g>
				<g id="&lt;Group&gt;">
					<path id="&lt;Compound Path&gt;" fill-rule="evenodd" class="s14" d="m452.3 648.6c0.1-0.8 0.7-2.2 0.8-2.8 0.1-0.6-0.7-2.4-0.5-3.1 0.1-0.8 1.6-2.5 1.6-2.5 0 0-0.1 1.9 0 2.1 0.1 0.3 0.5 0.7 0.6 0.6 0.1-0.1-0.7-3.7-0.6-4.8 0.1-1.1 2.7-5.3 2.3-4.6-0.3 0.6-1.1 3.5-1 4.1 0.1 0.5 1.2 2.9 1.5 3.9 0.3 1.1-0.4 2.8-0.4 3 0.1 0.2 1.1 0 1.6-0.5 0.5-0.5-0.4-3.3-0.6-4-0.3-0.7 0.7-4.5 1.1-5 0.3-0.5 3.9-1.2 4.1-1.6 0.2-0.5-1.4-2.3-1.2-2.7 0.1-0.4 1.7-1.3 2.1-1.8 0.5-0.5 0-2.8 0-2.8 0 0 2.6 4.1 2.7 5.3 0.1 1.1-0.7 2-0.8 2.4-0.1 0.3 0.9 3.2 1.3 3.5 0.4 0.4 1.2 0.8 2.1 1.3 0.9 0.6 1.3 2.2 1.3 2.2 0.1-0.7-0.7-2.3-0.8-2.8-0.1-0.5 1.7-4 1.7-4.5-0.1-0.5-1.4-2.1-1.5-2.8-0.1-0.7 2.7-3.6 2.7-3.6 0 0-1.3 3.3-1 4.3 0.4 0.9 3.7 6.5 3.7 7.7-0.1 1.1-1 4.5-0.9 5.1 0 0.6 1.2 3.5 1 4.3-0.2 0.8-3.2 3.5-3.8 3.9-0.6 0.4-2-0.2-2.6 0-0.5 0.2-4.5 1.1-4.5 1.1h-1.6c0 0-6-0.8-7.7-1.8-0.6-0.4-2.8-2.3-2.7-3.1zm19.2-5.6c0 0-0.9 1.2-0.6 2.2 0.2 0.9 0.5 1.3 0.5 1.8 0 0.5-0.2 1.7-0.2 1.7 0.1-0.1 0.9-1.7 1-2.5 0-0.9-0.7-3.2-0.7-3.2zm-0.6 8.7c0.6-0.3 2.2-1.8 2.4-2.4 0.2-0.7-0.2-2.8-0.2-2.8 0 0-0.4 2.1-0.7 2.5-0.2 0.4-1.7 1.1-2.1 1.5-0.5 0.5-1.5 1.3-1.5 1.3 0 0 1.6 0.2 2.1-0.1zm-14.2-2.3c0.3 1.2 2 2 2 2 0 0-0.3-1.2-0.6-1.7-0.3-0.4-0.7-1.3-0.7-2 0-0.7 0.8-2.1 0.8-2.2-0.1 0.1-1.7 2.7-1.5 3.9z"/>
					<path id="&lt;Path&gt;" class="s14" d="m469.6 627.8c0 0 1.7-1.2 1.8-2.1 0-1-1.1-2.9-1-3.7 0.1-0.7 0.5-1.5 0.5-1.5 0 0-1.8 1.3-1.8 2.3 0 1.1 1.1 2.7 1 3.2-0.1 0.5-0.5 1.8-0.5 1.8z"/>
					<path id="&lt;Path&gt;" class="s14" d="m459.2 633.5c0 0 0.4-1.2 0.3-1.7 0-0.5-0.6-1.1-0.6-1.1 0 0-0.5 0.5-0.2 1.2 0.2 0.8 0.5 1.6 0.5 1.6z"/>
					<path id="&lt;Path&gt;" class="s14" d="m454.9 633.3c0.1-0.1 0.9-1.4 1-2.6 0.1-1.2-0.5-2.7-0.7-3.1-0.2-0.4-1.2-0.9-1.2-0.9 0 0 0.7 0.9 0.7 1.4 0 0.4-0.3 1.8-0.4 2.4 0 0.5 0.6 2.8 0.6 2.8z"/>
					<path id="&lt;Path&gt;" class="s14" d="m466.2 626.1c0 0 1.3-1.8 1.1-2.9-0.3-1.2-1.3-2.7-1.7-3.1-0.4-0.4-1.3-1.3-1.7-1.9-0.4-0.6-0.5-2.9 0-3.5 0.4-0.5 1.1-0.9 1.1-0.9 0 0-1.8-0.1-2.9 1.5-1.2 1.6-2.6 7.8-1.9 9.2 0.7 1.4 2.6 2.8 2.6 2.8 0 0-0.5-2.5-0.4-3.1 0.2-0.6 2 0 2.5 0.4 0.4 0.4 1.3 1.5 1.3 1.5z"/>
					<path id="&lt;Path&gt;" class="s14" d="m469.2 634.9c0 0 0.8-0.9 0.6-1.6-0.1-0.7-1.2-1.8-1.2-2.1-0.1-0.4 0.2-1.8 0.2-1.8 0 0-1 2-0.8 2.6 0.2 0.6 0.5 1.5 0.5 1.5 0 0-0.5-0.3-0.6-0.5-0.1-0.3-0.2-0.7-0.2-0.7 0 0-0.8 1-0.5 1.7 0.2 0.6 1.6 1.9 1.6 1.9 0 0-0.1-0.4 0-0.6 0-0.2 0.1-0.1 0.4-0.4z"/>
					<g id="&lt;Group&gt;" style="opacity: .4">
						<path id="&lt;Path&gt;" class="s8" d="m463.6 653.5c0 0 4.8-1.7 5.8-4.1 0.7-1.5-1.1-4.7-1.2-5.1-0.2-0.5 0-2.4-0.2-3.2-0.3-0.8-3.6-2.7-3.9-3.3-0.3-0.5 0.5-2.6 0.5-2.6 0 0-2.5 2.1-2.9 3.3-0.4 1.1 1.1 3.4 1.1 3.8 0 0.4-0.9 1.7-0.9 1.7 0 0-0.6-0.9-0.7-1.7 0-0.8 0.4-1.2 0.3-1.7-0.1-0.6-1.1-1.7-1.1-1.7 0 0 0.6 1 0.3 1.7-0.3 0.6-1.6 1.9-1.4 2.9 0.2 1.1 1.7 3.4 1.6 4.1-0.1 0.6-0.5 1.1-0.5 1.1 0 0-0.4-1-0.5-1.6-0.2-0.7-0.3-1.5-0.3-1.5 0 0-0.8 4.2 0 5.4 0.8 1.1 4 2.5 4 2.5z"/>
						<path id="&lt;Path&gt;" class="s8" d="m464.9 624.2c0-0.1 0.6-1.2 0.6-1.9 0-0.6-1.1-1.4-1.7-1.9-0.5-0.5-1.6-2-1.5-2.8 0.1-0.8 0.2-1.4 0.2-1.4 0 0-1.5 4.5-1.4 5.9 0 1.5 0.9 2.4 0.9 2.4 0 0 0.3-1.4 0.9-1.4 0.9 0.1 2 1.1 2 1.1z"/>
						<path id="&lt;Path&gt;" class="s8" d="m470 627.2c0 0 1-0.9 1-1.6 0-0.6-1-2.4-1-2.4 0 0 0.4 2.1 0.5 2.5 0.1 0.4-0.5 1.5-0.5 1.5z"/>
						<path id="&lt;Path&gt;" class="s8" d="m458.3 652c0 0-2.1-1.3-2.4-1.6-0.4-0.3-1-2.1-0.9-2.5 0-0.4 0.7-2 0.7-2.4 0-0.4-1.4-2-1.4-2 0 0 0.5 1.5 0.4 1.8-0.1 0.4-1.9 2.5-1.7 3.3 0.1 0.7 1.7 2.1 2.2 2.5 0.5 0.3 3.1 0.9 3.1 0.9z"/>
						<path id="&lt;Path&gt;" class="s8" d="m472.8 643.7c0 0 1.4-3.5 1.3-4.4-0.2-1-1.8-4.5-1.8-4.5 0 0 0.2 3 0.3 3.5 0.1 0.5-0.3 1.9-0.3 1.9 0 0-0.4-1-0.5-1.4-0.1-0.4 0.2-1.9 0.2-1.9 0 0-1 2.7-0.7 3.7 0.2 1 1.5 3.1 1.5 3.1z"/>
					</g>
				</g>
			</g>
		</g>
	</g>
</svg>